# xmcd
#
# Track frame offsets:
#	150
#	8137
#	24845
#	47561
#	64854
#	80263
#	87775
#	109432
#	131190
#	156648
#	172490
#	194218
#	225899
#	248695
#	267036
#	276936
#	308018
#
# Disc length: 4434 seconds
#
# Revision: 1
# Processed by: cddbd v1.5PL3 Copyright (c) Steve Scherf et al.
# Submitted via: audiograbber 1.83.01
#
DISCID=e8115011
DTITLE=Southside Johnny and the Asbury Jukes - Hyde Park 25.10.2003 - CD1
DYEAR=2003
DGENRE=Rock
TTITLE0=Intro
TTITLE1=Time Is Running Wild
TTITLE2=Fade Away
TTITLE3=Unchain My Heart
TTITLE4=I Played The Fool
TTITLE5=Intro
TTITLE6=Gladly Go Blind
TTITLE7=Talk To Me
TTITLE8=Sinful
TTITLE9=Coming Back
TTITLE10=All I Needed Was You
TTITLE11=Walk Away Renee (Just My Imagination)
TTITLE12=Somebody To Love You
TTITLE13=She's Still In Love
TTITLE14=99 Red Balloons (Autobahn)
TTITLE15=Without Love
TTITLE16=Monkey In The Middle
EXTD=LIVE IN GERMANY
EXTT0=
EXTT1=
EXTT2=
EXTT3=
EXTT4=
EXTT5=
EXTT6=
EXTT7=
EXTT8=
EXTT9=
EXTT10=
EXTT11=
EXTT12=
EXTT13=
EXTT14=
EXTT15=
EXTT16=
PLAYORDER=
